<svg version="1.1" id="Layer_1" xmlns="http://www.w3.org/2000/svg" xmlns:xlink="http://www.w3.org/1999/xlink" x="0px" y="0px"
	 width="100%" height="100%" viewBox="0 0 800 600" enable-background="new 0 0 800 600" xml:space="preserve">
<g>

		<line fill="none" stroke="#FFFFFF" stroke-width="2" stroke-linecap="round" stroke-linejoin="round" stroke-miterlimit="10" x1="583.893" y1="598.035" x2="584.482" y2="549.747"/>

		<polyline fill="none" stroke="#FFFFFF" stroke-width="2" stroke-linecap="round" stroke-linejoin="round" stroke-miterlimit="10" points="
		578.924,552.135 584.582,548.961 589.743,551.553 	"/>

		<polyline fill="none" stroke="#FFFFFF" stroke-width="2" stroke-linecap="round" stroke-linejoin="round" stroke-miterlimit="10" points="
		578.073,558.888 584.422,554.645 590.766,557.964 	"/>

		<polyline fill="none" stroke="#FFFFFF" stroke-width="2" stroke-linecap="round" stroke-linejoin="round" stroke-miterlimit="10" points="
		575.197,567.214 584.361,559.68 592.842,565.091 	"/>

		<polyline fill="none" stroke="#FFFFFF" stroke-width="2" stroke-linecap="round" stroke-linejoin="round" stroke-miterlimit="10" points="
		576.402,572.168 584.271,566.996 593.256,572.689 	"/>
</g>
<g>

		<line fill="none" stroke="#FFFFFF" stroke-width="2" stroke-linecap="round" stroke-linejoin="round" stroke-miterlimit="10" x1="639.021" y1="602.118" x2="640.275" y2="548.559"/>

		<polyline fill="none" stroke="#FFFFFF" stroke-width="2" stroke-linecap="round" stroke-linejoin="round" stroke-miterlimit="10" points="
		634.674,551.281 640.386,547.684 645.521,550.488 	"/>

		<polyline fill="none" stroke="#FFFFFF" stroke-width="2" stroke-linecap="round" stroke-linejoin="round" stroke-miterlimit="10" points="
		633.729,558.783 640.148,553.992 646.457,557.585 	"/>

		<polyline fill="none" stroke="#FFFFFF" stroke-width="2" stroke-linecap="round" stroke-linejoin="round" stroke-miterlimit="10" points="
		630.734,568.057 640.02,559.575 648.438,565.459 	"/>

		<polyline fill="none" stroke="#FFFFFF" stroke-width="2" stroke-linecap="round" stroke-linejoin="round" stroke-miterlimit="10" points="
		631.873,573.533 639.828,567.69 648.75,573.881 	"/>
</g>
<g>

		<line fill="none" stroke="#FFFFFF" stroke-width="2" stroke-linecap="round" stroke-linejoin="round" stroke-miterlimit="10" x1="554.957" y1="544.076" x2="554.065" y2="598.385"/>
	<path fill="none" stroke="#FFFFFF" stroke-width="2" stroke-linecap="round" stroke-linejoin="round" stroke-miterlimit="10" d="
		M549.678,547.871"/>

		<polyline fill="none" stroke="#FFFFFF" stroke-width="2" stroke-linecap="round" stroke-linejoin="round" stroke-miterlimit="10" points="
		549.678,547.871 555.098,542.951 562.404,546.672 	"/>

		<polyline fill="none" stroke="#FFFFFF" stroke-width="2" stroke-linecap="round" stroke-linejoin="round" stroke-miterlimit="10" points="
		548.729,555.412 555.627,550.563 565.418,553.613 	"/>

		<polyline fill="none" stroke="#FFFFFF" stroke-width="2" stroke-linecap="round" stroke-linejoin="round" stroke-miterlimit="10" points="
		546.328,563.58 554.889,557.329 564.338,562.184 	"/>

		<polyline fill="none" stroke="#FFFFFF" stroke-width="2" stroke-linecap="round" stroke-linejoin="round" stroke-miterlimit="10" points="
		546.822,570.549 555.33,564.713 564.629,568.966 	"/>

		<polyline fill="none" stroke="#FFFFFF" stroke-width="2" stroke-linecap="round" stroke-linejoin="round" stroke-miterlimit="10" points="
		545.866,578.146 554.51,571.23 561.037,573.881 	"/>
</g>
<circle fill="#FFFFFF" stroke="#FFFFFF" stroke-width="2" stroke-linecap="round" stroke-linejoin="round" stroke-miterlimit="10" cx="593.139" cy="469.891" r="0.453"/>
<circle fill="#FFFFFF" stroke="#FFFFFF" stroke-width="2" stroke-linecap="round" stroke-linejoin="round" stroke-miterlimit="10" cx="577.673" cy="489.209" r="0.454"/>
<circle fill="#FFFFFF" stroke="#FFFFFF" stroke-width="2" stroke-linecap="round" stroke-linejoin="round" stroke-miterlimit="10" cx="628.038" cy="519.157" r="0.454"/>
<circle fill="#FFFFFF" stroke="#FFFFFF" stroke-width="2" stroke-linecap="round" stroke-linejoin="round" stroke-miterlimit="10" cx="561.282" cy="504.982" r="0.453"/>
<circle fill="#FFFFFF" stroke="#FFFFFF" stroke-width="2" stroke-linecap="round" stroke-linejoin="round" stroke-miterlimit="10" cx="555.144" cy="477.457" r="0.454"/>
<circle fill="#FFFFFF" stroke="#FFFFFF" stroke-width="2" stroke-linecap="round" stroke-linejoin="round" stroke-miterlimit="10" cx="539.026" cy="469.253" r="0.454"/>
<circle fill="#FFFFFF" stroke="#FFFFFF" stroke-width="2" stroke-linecap="round" stroke-linejoin="round" stroke-miterlimit="10" cx="524.733" cy="490.352" r="0.454"/>
<circle fill="#FFFFFF" stroke="#FFFFFF" stroke-width="2" stroke-linecap="round" stroke-linejoin="round" stroke-miterlimit="10" cx="545.079" cy="497.455" r="0.454"/>
<circle fill="#FFFFFF" stroke="#FFFFFF" stroke-width="2" stroke-linecap="round" stroke-linejoin="round" stroke-miterlimit="10" cx="538.274" cy="521.275" r="0.453"/>
<circle fill="#FFFFFF" stroke="#FFFFFF" stroke-width="2" stroke-linecap="round" stroke-linejoin="round" stroke-miterlimit="10" cx="517.855" cy="508.344" r="0.453"/>
<circle fill="#FFFFFF" stroke="#FFFFFF" stroke-width="2" stroke-linecap="round" stroke-linejoin="round" stroke-miterlimit="10" cx="248.293" cy="514.307" r="0.46"/>
<circle fill="#FFFFFF" stroke="#FFFFFF" stroke-width="2" stroke-linecap="round" stroke-linejoin="round" stroke-miterlimit="10" cx="582.716" cy="514.541" r="0.454"/>
<circle fill="#FFFFFF" stroke="#FFFFFF" stroke-width="2" stroke-linecap="round" stroke-linejoin="round" stroke-miterlimit="10" cx="611.427" cy="504.435" r="0.453"/>
<circle fill="#FFFFFF" stroke="#FFFFFF" stroke-width="2" stroke-linecap="round" stroke-linejoin="round" stroke-miterlimit="10" cx="618.025" cy="490.174" r="0.453"/>
<circle fill="#FFFFFF" stroke="#FFFFFF" stroke-width="2" stroke-linecap="round" stroke-linejoin="round" stroke-miterlimit="10" cx="645.25" cy="496.98" r="0.453"/>
<circle fill="#FFFFFF" stroke="#FFFFFF" stroke-width="2" stroke-linecap="round" stroke-linejoin="round" stroke-miterlimit="10" cx="630.699" cy="476.678" r="0.453"/>
<g>

		<line fill="none" stroke="#FFFFFF" stroke-width="2" stroke-linecap="round" stroke-linejoin="round" stroke-miterlimit="10" x1="189.919" y1="540.74" x2="189.081" y2="593.763"/>

		<polyline fill="none" stroke="#FFFFFF" stroke-width="2" stroke-linecap="round" stroke-linejoin="round" stroke-miterlimit="10" points="
		184.389,545.824 190.199,542.168 195.459,546.33 	"/>

		<polyline fill="none" stroke="#FFFFFF" stroke-width="2" stroke-linecap="round" stroke-linejoin="round" stroke-miterlimit="10" points="
		182.868,553.979 189.172,548.3 195.743,553.095 	"/>

		<polyline fill="none" stroke="#FFFFFF" stroke-width="2" stroke-linecap="round" stroke-linejoin="round" stroke-miterlimit="10" points="
		183.32,561.229 189.456,555.064 196.254,559.891 	"/>

		<polyline fill="none" stroke="#FFFFFF" stroke-width="2" stroke-linecap="round" stroke-linejoin="round" stroke-miterlimit="10" points="
		180.003,568.921 189.857,560.918 196.986,568.568 	"/>

		<polyline fill="none" stroke="#FFFFFF" stroke-width="2" stroke-linecap="round" stroke-linejoin="round" stroke-miterlimit="10" points="
		181.795,576.577 189.448,569.449 198.343,577.793 	"/>
</g>
<g>

		<line fill="none" stroke="#FFFFFF" stroke-width="2" stroke-linecap="round" stroke-linejoin="round" stroke-miterlimit="10" x1="146.168" y1="592.003" x2="144.07" y2="550.896"/>

		<polyline fill="none" stroke="#FFFFFF" stroke-width="2" stroke-linecap="round" stroke-linejoin="round" stroke-miterlimit="10" points="
		140.977,553.279 144.041,551.125 148.596,553.57 	"/>

		<polyline fill="none" stroke="#FFFFFF" stroke-width="2" stroke-linecap="round" stroke-linejoin="round" stroke-miterlimit="10" points="
		140.428,561.098 144.531,556.293 149.535,560.653 	"/>

		<polyline fill="none" stroke="#FFFFFF" stroke-width="2" stroke-linecap="round" stroke-linejoin="round" stroke-miterlimit="10" points="
		140.196,568.26 144.27,563.684 149.421,566.902 	"/>

		<polyline fill="none" stroke="#FFFFFF" stroke-width="2" stroke-linecap="round" stroke-linejoin="round" stroke-miterlimit="10" points="
		140.995,574.628 145.098,569.822 151.639,574.846 	"/>
</g>
<g>

		<line fill="none" stroke="#FFFFFF" stroke-width="2" stroke-linecap="round" stroke-linejoin="round" stroke-miterlimit="10" x1="235.212" y1="592.003" x2="233.115" y2="550.896"/>

		<polyline fill="none" stroke="#FFFFFF" stroke-width="2" stroke-linecap="round" stroke-linejoin="round" stroke-miterlimit="10" points="
		230.022,553.279 233.085,551.125 237.641,553.57 	"/>

		<polyline fill="none" stroke="#FFFFFF" stroke-width="2" stroke-linecap="round" stroke-linejoin="round" stroke-miterlimit="10" points="
		229.473,561.098 233.576,556.293 238.58,560.653 	"/>

		<polyline fill="none" stroke="#FFFFFF" stroke-width="2" stroke-linecap="round" stroke-linejoin="round" stroke-miterlimit="10" points="
		229.241,568.26 233.314,563.684 238.465,566.902 	"/>

		<polyline fill="none" stroke="#FFFFFF" stroke-width="2" stroke-linecap="round" stroke-linejoin="round" stroke-miterlimit="10" points="
		230.04,574.628 234.143,569.822 240.684,574.846 	"/>
</g>
<circle fill="#FFFFFF" stroke="#FFFFFF" stroke-width="2" stroke-linecap="round" stroke-linejoin="round" stroke-miterlimit="10" cx="220.867" cy="465.115" r="0.46"/>
<circle fill="#FFFFFF" stroke="#FFFFFF" stroke-width="2" stroke-linecap="round" stroke-linejoin="round" stroke-miterlimit="10" cx="190.279" cy="470.2" r="0.46"/>
<circle fill="#FFFFFF" stroke="#FFFFFF" stroke-width="2" stroke-linecap="round" stroke-linejoin="round" stroke-miterlimit="10" cx="202.486" cy="478.046" r="0.46"/>
<circle fill="#FFFFFF" stroke="#FFFFFF" stroke-width="2" stroke-linecap="round" stroke-linejoin="round" stroke-miterlimit="10" cx="200.84" cy="501.499" r="0.46"/>
<circle fill="#FFFFFF" stroke="#FFFFFF" stroke-width="2" stroke-linecap="round" stroke-linejoin="round" stroke-miterlimit="10" cx="168.397" cy="470.437" r="0.46"/>
<circle fill="#FFFFFF" stroke="#FFFFFF" stroke-width="2" stroke-linecap="round" stroke-linejoin="round" stroke-miterlimit="10" cx="218.08" cy="513.477" r="0.46"/>
<circle fill="#FFFFFF" stroke="#FFFFFF" stroke-width="2" stroke-linecap="round" stroke-linejoin="round" stroke-miterlimit="10" cx="227.409" cy="495.197" r="0.46"/>
<circle fill="#FFFFFF" stroke="#FFFFFF" stroke-width="2" stroke-linecap="round" stroke-linejoin="round" stroke-miterlimit="10" cx="234.66" cy="482.216" r="0.46"/>
<circle fill="#FFFFFF" stroke="#FFFFFF" stroke-width="2" stroke-linecap="round" stroke-linejoin="round" stroke-miterlimit="10" cx="249.156" cy="469.101" r="0.46"/>
<circle fill="#FFFFFF" stroke="#FFFFFF" stroke-width="2" stroke-linecap="round" stroke-linejoin="round" stroke-miterlimit="10" cx="178.718" cy="489.583" r="0.46"/>
<circle fill="#FFFFFF" stroke="#FFFFFF" stroke-width="2" stroke-linecap="round" stroke-linejoin="round" stroke-miterlimit="10" cx="142.824" cy="488.893" r="0.46"/>
<circle fill="#FFFFFF" stroke="#FFFFFF" stroke-width="2" stroke-linecap="round" stroke-linejoin="round" stroke-miterlimit="10" cx="179.518" cy="521.009" r="0.46"/>
<circle fill="#FFFFFF" stroke="#FFFFFF" stroke-width="2" stroke-linecap="round" stroke-linejoin="round" stroke-miterlimit="10" cx="162.341" cy="513.911" r="0.46"/>
<circle fill="#FFFFFF" stroke="#FFFFFF" stroke-width="2" stroke-linecap="round" stroke-linejoin="round" stroke-miterlimit="10" cx="162.733" cy="484.032" r="0.46"/>
<g>
	<g>

			<line fill="#FFFFFF" stroke="#FFFFFF" stroke-width="0.5" stroke-linejoin="round" stroke-miterlimit="10" x1="319.334" y1="600.233" x2="546.08" y2="600.823"/>
		<polygon fill="#FFFFFF" stroke="#FFFFFF" stroke-miterlimit="10" points="319.685,600.5 328.819,589.598 337.954,600.5 		"/>
		<polygon fill="#FFFFFF" stroke="#FFFFFF" stroke-miterlimit="10" points="335.7,600.5 344.833,589.598 353.967,600.5 		"/>
		<polygon fill="#FFFFFF" stroke="#FFFFFF" stroke-miterlimit="10" points="351.713,600.5 360.847,589.598 369.98,600.5 		"/>
		<polygon fill="#FFFFFF" stroke="#FFFFFF" stroke-miterlimit="10" points="367.726,600.5 376.859,589.598 385.995,600.5 		"/>
		<polygon fill="#FFFFFF" stroke="#FFFFFF" stroke-miterlimit="10" points="383.739,600.5 392.873,589.598 402.008,600.5 		"/>
		<polygon fill="#FFFFFF" stroke="#FFFFFF" stroke-miterlimit="10" points="399.752,600.5 408.886,589.598 418.021,600.5 		"/>
		<polygon fill="#FFFFFF" stroke="#FFFFFF" stroke-miterlimit="10" points="415.765,600.5 424.9,589.598 434.036,600.5 		"/>
		<polygon fill="#FFFFFF" stroke="#FFFFFF" stroke-miterlimit="10" points="431.778,600.5 440.914,589.598 450.048,600.5 		"/>
		<polygon fill="#FFFFFF" stroke="#FFFFFF" stroke-miterlimit="10" points="447.793,600.5 456.929,589.598 466.062,600.5 		"/>
		<polygon fill="#FFFFFF" stroke="#FFFFFF" stroke-miterlimit="10" points="463.807,600.5 472.941,589.598 482.074,600.5 		"/>
		<polygon fill="#FFFFFF" stroke="#FFFFFF" stroke-miterlimit="10" points="479.821,600.5 488.955,589.598 498.089,600.5 		"/>
		<polygon fill="#FFFFFF" stroke="#FFFFFF" stroke-miterlimit="10" points="495.835,600.5 504.967,589.598 514.101,600.5 		"/>
		<polygon fill="#FFFFFF" stroke="#FFFFFF" stroke-miterlimit="10" points="511.848,600.5 520.981,589.598 530.116,600.5 		"/>
		<polygon fill="#FFFFFF" stroke="#FFFFFF" stroke-miterlimit="10" points="527.861,600.5 536.993,589.598 546.129,600.5 		"/>
		<polygon fill="#FFFFFF" stroke="#FFFFFF" stroke-miterlimit="10" points="545.561,600.5 554.694,589.598 563.829,600.5 		"/>
		<polygon fill="#FFFFFF" stroke="#FFFFFF" stroke-miterlimit="10" points="563.26,600.5 572.395,589.598 581.53,600.5 		"/>
		<polygon fill="#FFFFFF" stroke="#FFFFFF" stroke-miterlimit="10" points="580.961,600.5 590.095,589.598 599.23,600.5 		"/>
		<polygon fill="#FFFFFF" stroke="#FFFFFF" stroke-miterlimit="10" points="598.661,600.5 607.794,589.598 616.93,600.5 		"/>
		<polygon fill="#FFFFFF" stroke="#FFFFFF" stroke-miterlimit="10" points="616.361,600.5 625.495,589.598 634.629,600.5 		"/>
		<polygon fill="#FFFFFF" stroke="#FFFFFF" stroke-miterlimit="10" points="634.062,600.5 643.194,589.598 652.33,600.5 		"/>
		<polygon fill="#FFFFFF" stroke="#FFFFFF" stroke-miterlimit="10" points="651.761,600.5 660.895,589.598 670.03,600.5 		"/>
		<polygon fill="#FFFFFF" stroke="#FFFFFF" stroke-miterlimit="10" points="669.461,600.5 678.595,589.598 687.73,600.5 		"/>
		<polygon fill="#FFFFFF" stroke="#FFFFFF" stroke-miterlimit="10" points="687.162,600.5 696.296,589.598 705.431,600.5 		"/>
		<polygon fill="#FFFFFF" stroke="#FFFFFF" stroke-miterlimit="10" points="704.861,600.5 713.995,589.598 723.131,600.5 		"/>
		<polygon fill="#FFFFFF" stroke="#FFFFFF" stroke-miterlimit="10" points="722.562,600.5 731.695,589.598 740.831,600.5 		"/>
		<polygon fill="#FFFFFF" stroke="#FFFFFF" stroke-miterlimit="10" points="740.262,600.5 749.395,589.598 758.531,600.5 		"/>
		<polygon fill="#FFFFFF" stroke="#FFFFFF" stroke-miterlimit="10" points="757.963,600.5 767.097,589.598 776.23,600.5 		"/>
		<polygon fill="#FFFFFF" stroke="#FFFFFF" stroke-miterlimit="10" points="775.663,600.5 784.796,589.598 793.932,600.5 		"/>
		<polygon fill="#FFFFFF" stroke="#FFFFFF" stroke-miterlimit="10" points="793.362,600.5 802.496,589.598 811.631,600.5 		"/>
		<path fill="#FFFFFF" stroke="#FFFFFF" stroke-miterlimit="10" d="M811.062,600.5"/>
	</g>
	<g>
		<path fill="#FFFFFF" stroke="#FFFFFF" stroke-miterlimit="10" d="M-0.805,600.5"/>
		<path fill="#FFFFFF" stroke="#FFFFFF" stroke-miterlimit="10" d="M7.76,589.598l-7.905,9.437c0.099,0.488,0.185,0.978,0.278,1.466
			h16.763L7.76,589.598z"/>
		<path fill="#FFFFFF" stroke="#FFFFFF" stroke-miterlimit="10" d="M-1.373,600.5h1.506c-0.093-0.488-0.179-0.978-0.278-1.466
			L-1.373,600.5"/>
		<polygon fill="#FFFFFF" stroke="#FFFFFF" stroke-miterlimit="10" points="16.327,600.5 25.46,589.598 34.595,600.5 		"/>
		<polygon fill="#FFFFFF" stroke="#FFFFFF" stroke-miterlimit="10" points="34.027,600.5 43.16,589.598 52.296,600.5 		"/>
		<polygon fill="#FFFFFF" stroke="#FFFFFF" stroke-miterlimit="10" points="51.727,600.5 60.861,589.598 69.996,600.5 		"/>
		<polygon fill="#FFFFFF" stroke="#FFFFFF" stroke-miterlimit="10" points="69.427,600.5 78.561,589.598 87.696,600.5 		"/>
		<polygon fill="#FFFFFF" stroke="#FFFFFF" stroke-miterlimit="10" points="87.127,600.5 96.261,589.598 105.396,600.5 		"/>
		<polygon fill="#FFFFFF" stroke="#FFFFFF" stroke-miterlimit="10" points="104.828,600.5 113.961,589.598 123.096,600.5 		"/>
		<polygon fill="#FFFFFF" stroke="#FFFFFF" stroke-miterlimit="10" points="122.527,600.5 131.661,589.598 140.796,600.5 		"/>
		<polygon fill="#FFFFFF" stroke="#FFFFFF" stroke-miterlimit="10" points="140.228,600.5 149.361,589.598 158.497,600.5 		"/>
		<polygon fill="#FFFFFF" stroke="#FFFFFF" stroke-miterlimit="10" points="157.928,600.5 167.062,589.598 176.196,600.5 		"/>
		<polygon fill="#FFFFFF" stroke="#FFFFFF" stroke-miterlimit="10" points="175.627,600.5 184.762,589.598 193.897,600.5 		"/>
		<polygon fill="#FFFFFF" stroke="#FFFFFF" stroke-miterlimit="10" points="193.328,600.5 202.462,589.598 211.597,600.5 		"/>
		<polygon fill="#FFFFFF" stroke="#FFFFFF" stroke-miterlimit="10" points="211.028,600.5 220.162,589.598 229.297,600.5 		"/>
		<polygon fill="#FFFFFF" stroke="#FFFFFF" stroke-miterlimit="10" points="228.728,600.5 237.862,589.598 246.997,600.5 		"/>
		<polygon fill="#FFFFFF" stroke="#FFFFFF" stroke-miterlimit="10" points="246.428,600.5 255.562,589.598 264.697,600.5 		"/>
		<polygon fill="#FFFFFF" stroke="#FFFFFF" stroke-miterlimit="10" points="264.128,600.5 273.262,589.598 282.397,600.5 		"/>
		<polygon fill="#FFFFFF" stroke="#FFFFFF" stroke-miterlimit="10" points="281.829,600.5 290.962,589.598 300.098,600.5 		"/>
		<polygon fill="#FFFFFF" stroke="#FFFFFF" stroke-miterlimit="10" points="299.529,600.5 308.663,589.598 317.797,600.5 		"/>
	</g>
</g>
</svg>
