<svg version="1.1" id="Layer_1" xmlns="http://www.w3.org/2000/svg" xmlns:xlink="http://www.w3.org/1999/xlink" x="0px" y="0px"
	 width="100%" height="100%" viewBox="0 0 800 600" enable-background="new 0 0 800 600" xml:space="preserve">
<g>

		<line fill="none" stroke="#FFFFFF" stroke-width="2" stroke-linecap="round" stroke-linejoin="round" stroke-miterlimit="10" x1="584.274" y1="596.399" x2="585.143" y2="525.452"/>

		<polyline fill="none" stroke="#FFFFFF" stroke-width="2" stroke-linecap="round" stroke-linejoin="round" stroke-miterlimit="10" points="
		576.975,528.96 585.289,524.296 592.872,528.105 	"/>

		<polyline fill="none" stroke="#FFFFFF" stroke-width="2" stroke-linecap="round" stroke-linejoin="round" stroke-miterlimit="10" points="
		575.726,538.882 585.055,532.648 594.374,537.525 	"/>

		<polyline fill="none" stroke="#FFFFFF" stroke-width="2" stroke-linecap="round" stroke-linejoin="round" stroke-miterlimit="10" points="
		571.498,551.115 584.965,540.045 597.424,547.996 	"/>

		<polyline fill="none" stroke="#FFFFFF" stroke-width="2" stroke-linecap="round" stroke-linejoin="round" stroke-miterlimit="10" points="
		573.27,558.394 584.833,550.795 598.033,559.16 	"/>
</g>
<g>

		<line fill="none" stroke="#FFFFFF" stroke-width="2" stroke-linecap="round" stroke-linejoin="round" stroke-miterlimit="10" x1="665.274" y1="602.399" x2="667.117" y2="523.705"/>

		<polyline fill="none" stroke="#FFFFFF" stroke-width="2" stroke-linecap="round" stroke-linejoin="round" stroke-miterlimit="10" points="
		658.888,527.707 667.28,522.421 674.824,526.541 	"/>

		<polyline fill="none" stroke="#FFFFFF" stroke-width="2" stroke-linecap="round" stroke-linejoin="round" stroke-miterlimit="10" points="
		657.5,538.729 666.932,531.688 676.199,536.968 	"/>

		<polyline fill="none" stroke="#FFFFFF" stroke-width="2" stroke-linecap="round" stroke-linejoin="round" stroke-miterlimit="10" points="
		653.098,552.354 666.74,539.892 679.111,548.538 	"/>

		<polyline fill="none" stroke="#FFFFFF" stroke-width="2" stroke-linecap="round" stroke-linejoin="round" stroke-miterlimit="10" points="
		654.771,560.401 666.46,551.815 679.568,560.911 	"/>
</g>
<g>

		<line fill="none" stroke="#FFFFFF" stroke-width="2" stroke-linecap="round" stroke-linejoin="round" stroke-miterlimit="10" x1="541.761" y1="517.119" x2="540.451" y2="596.914"/>
	<path fill="none" stroke="#FFFFFF" stroke-width="2" stroke-linecap="round" stroke-linejoin="round" stroke-miterlimit="10" d="
		M534.004,522.694"/>

		<polyline fill="none" stroke="#FFFFFF" stroke-width="2" stroke-linecap="round" stroke-linejoin="round" stroke-miterlimit="10" points="
		534.004,522.694 541.969,515.466 552.703,520.934 	"/>

		<polyline fill="none" stroke="#FFFFFF" stroke-width="2" stroke-linecap="round" stroke-linejoin="round" stroke-miterlimit="10" points="
		532.609,533.774 542.745,526.65 557.131,531.133 	"/>

		<polyline fill="none" stroke="#FFFFFF" stroke-width="2" stroke-linecap="round" stroke-linejoin="round" stroke-miterlimit="10" points="
		529.082,545.776 541.661,536.593 555.546,543.725 	"/>

		<polyline fill="none" stroke="#FFFFFF" stroke-width="2" stroke-linecap="round" stroke-linejoin="round" stroke-miterlimit="10" points="
		529.81,556.015 542.311,547.441 555.972,553.689 	"/>

		<polyline fill="none" stroke="#FFFFFF" stroke-width="2" stroke-linecap="round" stroke-linejoin="round" stroke-miterlimit="10" points="
		528.404,567.177 541.105,557.017 550.694,560.912 	"/>
</g>
<circle fill="#FFFFFF" stroke="#FFFFFF" stroke-width="2" stroke-linecap="round" stroke-linejoin="round" stroke-miterlimit="10" cx="597.86" cy="408.123" r="0.666"/>
<circle fill="#FFFFFF" stroke="#FFFFFF" stroke-width="2" stroke-linecap="round" stroke-linejoin="round" stroke-miterlimit="10" cx="575.137" cy="436.507" r="0.667"/>
<circle fill="#FFFFFF" stroke="#FFFFFF" stroke-width="2" stroke-linecap="round" stroke-linejoin="round" stroke-miterlimit="10" cx="649.137" cy="480.507" r="0.667"/>
<circle fill="#FFFFFF" stroke="#FFFFFF" stroke-width="2" stroke-linecap="round" stroke-linejoin="round" stroke-miterlimit="10" cx="551.054" cy="459.681" r="0.666"/>
<circle fill="#FFFFFF" stroke="#FFFFFF" stroke-width="2" stroke-linecap="round" stroke-linejoin="round" stroke-miterlimit="10" cx="542.035" cy="419.237" r="0.666"/>
<circle fill="#FFFFFF" stroke="#FFFFFF" stroke-width="2" stroke-linecap="round" stroke-linejoin="round" stroke-miterlimit="10" cx="518.355" cy="407.185" r="0.667"/>
<circle fill="#FFFFFF" stroke="#FFFFFF" stroke-width="2" stroke-linecap="round" stroke-linejoin="round" stroke-miterlimit="10" cx="497.355" cy="438.185" r="0.667"/>
<circle fill="#FFFFFF" stroke="#FFFFFF" stroke-width="2" stroke-linecap="round" stroke-linejoin="round" stroke-miterlimit="10" cx="527.249" cy="448.62" r="0.666"/>
<circle fill="#FFFFFF" stroke="#FFFFFF" stroke-width="2" stroke-linecap="round" stroke-linejoin="round" stroke-miterlimit="10" cx="517.249" cy="483.62" r="0.666"/>
<circle fill="#FFFFFF" stroke="#FFFFFF" stroke-width="2" stroke-linecap="round" stroke-linejoin="round" stroke-miterlimit="10" cx="487.249" cy="464.62" r="0.666"/>
<circle fill="#FFFFFF" stroke="#FFFFFF" stroke-width="2" stroke-linecap="round" stroke-linejoin="round" stroke-miterlimit="10" cx="272.249" cy="487.62" r="0.666"/>
<circle fill="#FFFFFF" stroke="#FFFFFF" stroke-width="2" stroke-linecap="round" stroke-linejoin="round" stroke-miterlimit="10" cx="582.547" cy="473.724" r="0.666"/>
<circle fill="#FFFFFF" stroke="#FFFFFF" stroke-width="2" stroke-linecap="round" stroke-linejoin="round" stroke-miterlimit="10" cx="624.731" cy="458.876" r="0.666"/>
<circle fill="#FFFFFF" stroke="#FFFFFF" stroke-width="2" stroke-linecap="round" stroke-linejoin="round" stroke-miterlimit="10" cx="634.425" cy="437.923" r="0.666"/>
<circle fill="#FFFFFF" stroke="#FFFFFF" stroke-width="2" stroke-linecap="round" stroke-linejoin="round" stroke-miterlimit="10" cx="674.425" cy="447.923" r="0.666"/>
<circle fill="#FFFFFF" stroke="#FFFFFF" stroke-width="2" stroke-linecap="round" stroke-linejoin="round" stroke-miterlimit="10" cx="653.047" cy="418.094" r="0.666"/>
<g>

		<line fill="none" stroke="#FFFFFF" stroke-width="2" stroke-linecap="round" stroke-linejoin="round" stroke-miterlimit="10" x1="187.682" y1="525.914" x2="186.467" y2="602.729"/>

		<polyline fill="none" stroke="#FFFFFF" stroke-width="2" stroke-linecap="round" stroke-linejoin="round" stroke-miterlimit="10" points="
		179.669,533.279 188.086,527.983 195.708,534.014 	"/>

		<polyline fill="none" stroke="#FFFFFF" stroke-width="2" stroke-linecap="round" stroke-linejoin="round" stroke-miterlimit="10" points="
		177.467,545.094 186.6,536.866 196.119,543.812 	"/>

		<polyline fill="none" stroke="#FFFFFF" stroke-width="2" stroke-linecap="round" stroke-linejoin="round" stroke-miterlimit="10" points="
		178.122,555.598 187.01,546.666 196.86,553.657 	"/>

		<polyline fill="none" stroke="#FFFFFF" stroke-width="2" stroke-linecap="round" stroke-linejoin="round" stroke-miterlimit="10" points="
		173.316,566.74 187.592,555.146 197.92,566.23 	"/>

		<polyline fill="none" stroke="#FFFFFF" stroke-width="2" stroke-linecap="round" stroke-linejoin="round" stroke-miterlimit="10" points="
		175.913,577.832 186.999,567.505 199.885,579.594 	"/>
</g>
<g>

		<line fill="none" stroke="#FFFFFF" stroke-width="2" stroke-linecap="round" stroke-linejoin="round" stroke-miterlimit="10" x1="124.299" y1="600.18" x2="121.26" y2="540.628"/>

		<polyline fill="none" stroke="#FFFFFF" stroke-width="2" stroke-linecap="round" stroke-linejoin="round" stroke-miterlimit="10" points="
		116.779,544.08 121.217,540.959 127.816,544.502 	"/>

		<polyline fill="none" stroke="#FFFFFF" stroke-width="2" stroke-linecap="round" stroke-linejoin="round" stroke-miterlimit="10" points="
		115.984,555.406 121.928,548.445 129.176,554.763 	"/>

		<polyline fill="none" stroke="#FFFFFF" stroke-width="2" stroke-linecap="round" stroke-linejoin="round" stroke-miterlimit="10" points="
		115.647,565.782 121.549,559.152 129.011,563.816 	"/>

		<polyline fill="none" stroke="#FFFFFF" stroke-width="2" stroke-linecap="round" stroke-linejoin="round" stroke-miterlimit="10" points="
		116.805,575.008 122.749,568.047 132.225,575.324 	"/>
</g>
<g>

		<line fill="none" stroke="#FFFFFF" stroke-width="2" stroke-linecap="round" stroke-linejoin="round" stroke-miterlimit="10" x1="253.299" y1="600.18" x2="250.26" y2="540.628"/>

		<polyline fill="none" stroke="#FFFFFF" stroke-width="2" stroke-linecap="round" stroke-linejoin="round" stroke-miterlimit="10" points="
		245.779,544.08 250.217,540.959 256.816,544.502 	"/>

		<polyline fill="none" stroke="#FFFFFF" stroke-width="2" stroke-linecap="round" stroke-linejoin="round" stroke-miterlimit="10" points="
		244.984,555.406 250.928,548.445 258.176,554.763 	"/>

		<polyline fill="none" stroke="#FFFFFF" stroke-width="2" stroke-linecap="round" stroke-linejoin="round" stroke-miterlimit="10" points="
		244.647,565.782 250.549,559.152 258.011,563.816 	"/>

		<polyline fill="none" stroke="#FFFFFF" stroke-width="2" stroke-linecap="round" stroke-linejoin="round" stroke-miterlimit="10" points="
		245.805,575.008 251.749,568.047 261.225,575.324 	"/>
</g>
<circle fill="#FFFFFF" stroke="#FFFFFF" stroke-width="2" stroke-linecap="round" stroke-linejoin="round" stroke-miterlimit="10" cx="232.516" cy="416.356" r="0.666"/>
<circle fill="#FFFFFF" stroke="#FFFFFF" stroke-width="2" stroke-linecap="round" stroke-linejoin="round" stroke-miterlimit="10" cx="188.202" cy="423.723" r="0.667"/>
<circle fill="#FFFFFF" stroke="#FFFFFF" stroke-width="2" stroke-linecap="round" stroke-linejoin="round" stroke-miterlimit="10" cx="205.888" cy="435.09" r="0.666"/>
<circle fill="#FFFFFF" stroke="#FFFFFF" stroke-width="2" stroke-linecap="round" stroke-linejoin="round" stroke-miterlimit="10" cx="203.502" cy="469.064" r="0.666"/>
<circle fill="#FFFFFF" stroke="#FFFFFF" stroke-width="2" stroke-linecap="round" stroke-linejoin="round" stroke-miterlimit="10" cx="156.502" cy="424.064" r="0.666"/>
<circle fill="#FFFFFF" stroke="#FFFFFF" stroke-width="2" stroke-linecap="round" stroke-linejoin="round" stroke-miterlimit="10" cx="228.479" cy="486.418" r="0.667"/>
<circle fill="#FFFFFF" stroke="#FFFFFF" stroke-width="2" stroke-linecap="round" stroke-linejoin="round" stroke-miterlimit="10" cx="241.994" cy="459.936" r="0.666"/>
<circle fill="#FFFFFF" stroke="#FFFFFF" stroke-width="2" stroke-linecap="round" stroke-linejoin="round" stroke-miterlimit="10" cx="252.498" cy="441.129" r="0.666"/>
<circle fill="#FFFFFF" stroke="#FFFFFF" stroke-width="2" stroke-linecap="round" stroke-linejoin="round" stroke-miterlimit="10" cx="273.498" cy="422.129" r="0.666"/>
<circle fill="#FFFFFF" stroke="#FFFFFF" stroke-width="2" stroke-linecap="round" stroke-linejoin="round" stroke-miterlimit="10" cx="171.455" cy="451.803" r="0.667"/>
<circle fill="#FFFFFF" stroke="#FFFFFF" stroke-width="2" stroke-linecap="round" stroke-linejoin="round" stroke-miterlimit="10" cx="119.455" cy="450.803" r="0.667"/>
<circle fill="#FFFFFF" stroke="#FFFFFF" stroke-width="2" stroke-linecap="round" stroke-linejoin="round" stroke-miterlimit="10" cx="172.614" cy="497.33" r="0.666"/>
<circle fill="#FFFFFF" stroke="#FFFFFF" stroke-width="2" stroke-linecap="round" stroke-linejoin="round" stroke-miterlimit="10" cx="147.729" cy="487.046" r="0.666"/>
<circle fill="#FFFFFF" stroke="#FFFFFF" stroke-width="2" stroke-linecap="round" stroke-linejoin="round" stroke-miterlimit="10" cx="148.296" cy="443.76" r="0.666"/>
<g>
	<g>

			<line fill="#FFFFFF" stroke="#FFFFFF" stroke-width="0.5" stroke-linejoin="round" stroke-miterlimit="10" x1="319.334" y1="600.233" x2="546.08" y2="600.823"/>
		<polygon fill="#FFFFFF" stroke="#FFFFFF" stroke-miterlimit="10" points="319.685,600.5 328.819,589.598 337.954,600.5 		"/>
		<polygon fill="#FFFFFF" stroke="#FFFFFF" stroke-miterlimit="10" points="335.7,600.5 344.833,589.598 353.967,600.5 		"/>
		<polygon fill="#FFFFFF" stroke="#FFFFFF" stroke-miterlimit="10" points="351.713,600.5 360.847,589.598 369.98,600.5 		"/>
		<polygon fill="#FFFFFF" stroke="#FFFFFF" stroke-miterlimit="10" points="367.726,600.5 376.859,589.598 385.995,600.5 		"/>
		<polygon fill="#FFFFFF" stroke="#FFFFFF" stroke-miterlimit="10" points="383.739,600.5 392.873,589.598 402.008,600.5 		"/>
		<polygon fill="#FFFFFF" stroke="#FFFFFF" stroke-miterlimit="10" points="399.752,600.5 408.886,589.598 418.021,600.5 		"/>
		<polygon fill="#FFFFFF" stroke="#FFFFFF" stroke-miterlimit="10" points="415.765,600.5 424.9,589.598 434.036,600.5 		"/>
		<polygon fill="#FFFFFF" stroke="#FFFFFF" stroke-miterlimit="10" points="431.778,600.5 440.914,589.598 450.048,600.5 		"/>
		<polygon fill="#FFFFFF" stroke="#FFFFFF" stroke-miterlimit="10" points="447.793,600.5 456.929,589.598 466.062,600.5 		"/>
		<polygon fill="#FFFFFF" stroke="#FFFFFF" stroke-miterlimit="10" points="463.807,600.5 472.941,589.598 482.074,600.5 		"/>
		<polygon fill="#FFFFFF" stroke="#FFFFFF" stroke-miterlimit="10" points="479.821,600.5 488.955,589.598 498.089,600.5 		"/>
		<polygon fill="#FFFFFF" stroke="#FFFFFF" stroke-miterlimit="10" points="495.835,600.5 504.967,589.598 514.101,600.5 		"/>
		<polygon fill="#FFFFFF" stroke="#FFFFFF" stroke-miterlimit="10" points="511.848,600.5 520.981,589.598 530.116,600.5 		"/>
		<polygon fill="#FFFFFF" stroke="#FFFFFF" stroke-miterlimit="10" points="527.861,600.5 536.993,589.598 546.129,600.5 		"/>
		<polygon fill="#FFFFFF" stroke="#FFFFFF" stroke-miterlimit="10" points="545.561,600.5 554.694,589.598 563.829,600.5 		"/>
		<polygon fill="#FFFFFF" stroke="#FFFFFF" stroke-miterlimit="10" points="563.26,600.5 572.395,589.598 581.53,600.5 		"/>
		<polygon fill="#FFFFFF" stroke="#FFFFFF" stroke-miterlimit="10" points="580.961,600.5 590.095,589.598 599.23,600.5 		"/>
		<polygon fill="#FFFFFF" stroke="#FFFFFF" stroke-miterlimit="10" points="598.661,600.5 607.794,589.598 616.93,600.5 		"/>
		<polygon fill="#FFFFFF" stroke="#FFFFFF" stroke-miterlimit="10" points="616.361,600.5 625.495,589.598 634.629,600.5 		"/>
		<polygon fill="#FFFFFF" stroke="#FFFFFF" stroke-miterlimit="10" points="634.062,600.5 643.194,589.598 652.33,600.5 		"/>
		<polygon fill="#FFFFFF" stroke="#FFFFFF" stroke-miterlimit="10" points="651.761,600.5 660.895,589.598 670.03,600.5 		"/>
		<polygon fill="#FFFFFF" stroke="#FFFFFF" stroke-miterlimit="10" points="669.461,600.5 678.595,589.598 687.73,600.5 		"/>
		<polygon fill="#FFFFFF" stroke="#FFFFFF" stroke-miterlimit="10" points="687.162,600.5 696.296,589.598 705.431,600.5 		"/>
		<polygon fill="#FFFFFF" stroke="#FFFFFF" stroke-miterlimit="10" points="704.861,600.5 713.995,589.598 723.131,600.5 		"/>
		<polygon fill="#FFFFFF" stroke="#FFFFFF" stroke-miterlimit="10" points="722.562,600.5 731.695,589.598 740.831,600.5 		"/>
		<polygon fill="#FFFFFF" stroke="#FFFFFF" stroke-miterlimit="10" points="740.262,600.5 749.395,589.598 758.531,600.5 		"/>
		<polygon fill="#FFFFFF" stroke="#FFFFFF" stroke-miterlimit="10" points="757.963,600.5 767.097,589.598 776.23,600.5 		"/>
		<polygon fill="#FFFFFF" stroke="#FFFFFF" stroke-miterlimit="10" points="775.663,600.5 784.796,589.598 793.932,600.5 		"/>
		<polygon fill="#FFFFFF" stroke="#FFFFFF" stroke-miterlimit="10" points="793.362,600.5 802.496,589.598 811.631,600.5 		"/>
		<path fill="#FFFFFF" stroke="#FFFFFF" stroke-miterlimit="10" d="M811.062,600.5"/>
	</g>
	<g>
		<path fill="#FFFFFF" stroke="#FFFFFF" stroke-miterlimit="10" d="M-0.805,600.5"/>
		<path fill="#FFFFFF" stroke="#FFFFFF" stroke-miterlimit="10" d="M7.76,589.598l-7.905,9.437c0.099,0.488,0.185,0.978,0.278,1.466
			h16.763L7.76,589.598z"/>
		<path fill="#FFFFFF" stroke="#FFFFFF" stroke-miterlimit="10" d="M-1.373,600.5h1.506c-0.093-0.488-0.179-0.978-0.278-1.466
			L-1.373,600.5"/>
		<polygon fill="#FFFFFF" stroke="#FFFFFF" stroke-miterlimit="10" points="16.327,600.5 25.46,589.598 34.595,600.5 		"/>
		<polygon fill="#FFFFFF" stroke="#FFFFFF" stroke-miterlimit="10" points="34.027,600.5 43.16,589.598 52.296,600.5 		"/>
		<polygon fill="#FFFFFF" stroke="#FFFFFF" stroke-miterlimit="10" points="51.727,600.5 60.861,589.598 69.996,600.5 		"/>
		<polygon fill="#FFFFFF" stroke="#FFFFFF" stroke-miterlimit="10" points="69.427,600.5 78.561,589.598 87.696,600.5 		"/>
		<polygon fill="#FFFFFF" stroke="#FFFFFF" stroke-miterlimit="10" points="87.127,600.5 96.261,589.598 105.396,600.5 		"/>
		<polygon fill="#FFFFFF" stroke="#FFFFFF" stroke-miterlimit="10" points="104.828,600.5 113.961,589.598 123.096,600.5 		"/>
		<polygon fill="#FFFFFF" stroke="#FFFFFF" stroke-miterlimit="10" points="122.527,600.5 131.661,589.598 140.796,600.5 		"/>
		<polygon fill="#FFFFFF" stroke="#FFFFFF" stroke-miterlimit="10" points="140.228,600.5 149.361,589.598 158.497,600.5 		"/>
		<polygon fill="#FFFFFF" stroke="#FFFFFF" stroke-miterlimit="10" points="157.928,600.5 167.062,589.598 176.196,600.5 		"/>
		<polygon fill="#FFFFFF" stroke="#FFFFFF" stroke-miterlimit="10" points="175.627,600.5 184.762,589.598 193.897,600.5 		"/>
		<polygon fill="#FFFFFF" stroke="#FFFFFF" stroke-miterlimit="10" points="193.328,600.5 202.462,589.598 211.597,600.5 		"/>
		<polygon fill="#FFFFFF" stroke="#FFFFFF" stroke-miterlimit="10" points="211.028,600.5 220.162,589.598 229.297,600.5 		"/>
		<polygon fill="#FFFFFF" stroke="#FFFFFF" stroke-miterlimit="10" points="228.728,600.5 237.862,589.598 246.997,600.5 		"/>
		<polygon fill="#FFFFFF" stroke="#FFFFFF" stroke-miterlimit="10" points="246.428,600.5 255.562,589.598 264.697,600.5 		"/>
		<polygon fill="#FFFFFF" stroke="#FFFFFF" stroke-miterlimit="10" points="264.128,600.5 273.262,589.598 282.397,600.5 		"/>
		<polygon fill="#FFFFFF" stroke="#FFFFFF" stroke-miterlimit="10" points="281.829,600.5 290.962,589.598 300.098,600.5 		"/>
		<polygon fill="#FFFFFF" stroke="#FFFFFF" stroke-miterlimit="10" points="299.529,600.5 308.663,589.598 317.797,600.5 		"/>
	</g>
</g>
</svg>
