<svg version="1.1" id="Layer_1" xmlns="http://www.w3.org/2000/svg" xmlns:xlink="http://www.w3.org/1999/xlink" x="0px" y="0px"
	 width="100%" height="100%" viewBox="0 0 800 600" enable-background="new 0 0 800 600" xml:space="preserve">
<rect x="-194.5" y="-150.5" display="none" stroke="#FFFFFF" stroke-width="3" stroke-linecap="round" stroke-linejoin="round" stroke-miterlimit="10" width="1446" height="1066"/>
<g>

		<line fill="none" stroke="#FFFFFF" stroke-width="4" stroke-linecap="round" stroke-linejoin="round" stroke-miterlimit="10" x1="600.227" y1="598.928" x2="601.773" y2="472.293"/>

		<polyline fill="none" stroke="#FFFFFF" stroke-width="4" stroke-linecap="round" stroke-linejoin="round" stroke-miterlimit="10" points="
		587.197,478.555 602.035,470.23 615.57,477.027 	"/>

		<polyline fill="none" stroke="#FFFFFF" stroke-width="4" stroke-linecap="round" stroke-linejoin="round" stroke-miterlimit="10" points="
		584.967,496.264 601.615,485.137 618.252,493.84 	"/>

		<polyline fill="none" stroke="#FFFFFF" stroke-width="4" stroke-linecap="round" stroke-linejoin="round" stroke-miterlimit="10" points="
		577.424,518.1 601.457,498.34 623.697,512.531 	"/>

		<polyline fill="none" stroke="#FFFFFF" stroke-width="4" stroke-linecap="round" stroke-linejoin="round" stroke-miterlimit="10" points="
		580.584,531.092 601.221,517.527 624.783,532.459 	"/>
</g>
<g>

		<line fill="none" stroke="#FFFFFF" stroke-width="4" stroke-linecap="round" stroke-linejoin="round" stroke-miterlimit="10" x1="744.803" y1="609.635" x2="748.092" y2="469.176"/>

		<polyline fill="none" stroke="#FFFFFF" stroke-width="4" stroke-linecap="round" stroke-linejoin="round" stroke-miterlimit="10" points="
		733.402,476.316 748.381,466.881 761.85,474.236 	"/>

		<polyline fill="none" stroke="#FFFFFF" stroke-width="4" stroke-linecap="round" stroke-linejoin="round" stroke-miterlimit="10" points="
		730.926,495.99 747.758,483.426 764.303,492.848 	"/>

		<polyline fill="none" stroke="#FFFFFF" stroke-width="4" stroke-linecap="round" stroke-linejoin="round" stroke-miterlimit="10" points="
		723.07,520.309 747.42,498.066 769.5,513.496 	"/>

		<polyline fill="none" stroke="#FFFFFF" stroke-width="4" stroke-linecap="round" stroke-linejoin="round" stroke-miterlimit="10" points="
		726.057,534.672 746.918,519.35 770.316,535.584 	"/>
</g>
<g>

		<line fill="none" stroke="#FFFFFF" stroke-width="4" stroke-linecap="round" stroke-linejoin="round" stroke-miterlimit="10" x1="524.344" y1="457.42" x2="522.006" y2="599.846"/>
	<path fill="none" stroke="#FFFFFF" stroke-width="4" stroke-linecap="round" stroke-linejoin="round" stroke-miterlimit="10" d="
		M510.498,467.373"/>

		<polyline fill="none" stroke="#FFFFFF" stroke-width="4" stroke-linecap="round" stroke-linejoin="round" stroke-miterlimit="10" points="
		510.498,467.373 524.713,454.471 543.875,464.227 	"/>

		<polyline fill="none" stroke="#FFFFFF" stroke-width="4" stroke-linecap="round" stroke-linejoin="round" stroke-miterlimit="10" points="
		508.01,487.148 526.1,474.434 551.777,482.432 	"/>

		<polyline fill="none" stroke="#FFFFFF" stroke-width="4" stroke-linecap="round" stroke-linejoin="round" stroke-miterlimit="10" points="
		501.715,508.568 524.164,492.176 548.945,504.906 	"/>

		<polyline fill="none" stroke="#FFFFFF" stroke-width="4" stroke-linecap="round" stroke-linejoin="round" stroke-miterlimit="10" points="
		503.01,526.846 525.322,511.541 549.709,522.693 	"/>

		<polyline fill="none" stroke="#FFFFFF" stroke-width="4" stroke-linecap="round" stroke-linejoin="round" stroke-miterlimit="10" points="
		500.504,546.768 523.17,528.633 540.289,535.584 	"/>
</g>
<path fill="#FFFFFF" stroke="#FFFFFF" stroke-width="5" stroke-linecap="round" stroke-linejoin="round" stroke-miterlimit="10" d="
	M625.656,263.02c-0.084,0.65-0.68,1.113-1.33,1.031s-1.113-0.676-1.029-1.332c0.08-0.65,0.676-1.107,1.326-1.029
	C625.273,261.771,625.734,262.369,625.656,263.02z"/>
<path fill="#FFFFFF" stroke="#FFFFFF" stroke-width="5" stroke-linecap="round" stroke-linejoin="round" stroke-miterlimit="10" d="
	M585.098,313.682c-0.082,0.652-0.68,1.113-1.332,1.031c-0.648-0.082-1.111-0.676-1.029-1.33c0.082-0.65,0.678-1.111,1.326-1.031
	C584.717,312.434,585.178,313.029,585.098,313.682z"/>
<path fill="#FFFFFF" stroke="#FFFFFF" stroke-width="5" stroke-linecap="round" stroke-linejoin="round" stroke-miterlimit="10" d="
	M717.18,392.219c-0.082,0.65-0.678,1.113-1.328,1.031s-1.115-0.676-1.033-1.332c0.082-0.65,0.676-1.111,1.326-1.029
	S717.262,391.566,717.18,392.219z"/>
<path fill="#FFFFFF" stroke="#FFFFFF" stroke-width="5" stroke-linecap="round" stroke-linejoin="round" stroke-miterlimit="10" d="
	M542.109,355.045c-0.08,0.65-0.678,1.111-1.328,1.029c-0.65-0.078-1.111-0.676-1.031-1.326s0.678-1.117,1.328-1.031
	C541.729,353.797,542.193,354.395,542.109,355.045z"/>
<path fill="#FFFFFF" stroke="#FFFFFF" stroke-width="5" stroke-linecap="round" stroke-linejoin="round" stroke-miterlimit="10" d="
	M526.014,282.859c-0.082,0.65-0.68,1.111-1.332,1.029c-0.648-0.082-1.111-0.676-1.029-1.326c0.082-0.652,0.676-1.117,1.326-1.031
	C525.629,281.609,526.094,282.203,526.014,282.859z"/>
<path fill="#FFFFFF" stroke="#FFFFFF" stroke-width="5" stroke-linecap="round" stroke-linejoin="round" stroke-miterlimit="10" d="
	M483.746,261.348c-0.082,0.65-0.676,1.111-1.326,1.029c-0.65-0.08-1.117-0.676-1.035-1.33c0.082-0.652,0.678-1.109,1.33-1.031
	C483.365,260.098,483.828,260.691,483.746,261.348z"/>
<path fill="#FFFFFF" stroke="#FFFFFF" stroke-width="5" stroke-linecap="round" stroke-linejoin="round" stroke-miterlimit="10" d="
	M446.262,316.676c-0.08,0.656-0.678,1.117-1.328,1.035s-1.113-0.68-1.033-1.33c0.082-0.652,0.678-1.113,1.328-1.031
	S446.348,316.025,446.262,316.676z"/>
<path fill="#FFFFFF" stroke="#FFFFFF" stroke-width="5" stroke-linecap="round" stroke-linejoin="round" stroke-miterlimit="10" d="
	M499.619,335.305c-0.082,0.65-0.678,1.111-1.328,1.031c-0.65-0.078-1.115-0.678-1.033-1.328c0.082-0.656,0.682-1.117,1.332-1.035
	C499.24,334.057,499.703,334.648,499.619,335.305z"/>
<path fill="#FFFFFF" stroke="#FFFFFF" stroke-width="5" stroke-linecap="round" stroke-linejoin="round" stroke-miterlimit="10" d="
	M481.771,397.773c-0.08,0.652-0.678,1.117-1.33,1.031c-0.65-0.078-1.111-0.676-1.029-1.328c0.08-0.65,0.678-1.111,1.328-1.029
	S481.852,397.123,481.771,397.773z"/>
<path fill="#FFFFFF" stroke="#FFFFFF" stroke-width="5" stroke-linecap="round" stroke-linejoin="round" stroke-miterlimit="10" d="
	M428.223,363.859c-0.082,0.654-0.676,1.117-1.33,1.033c-0.65-0.08-1.113-0.674-1.029-1.33c0.086-0.65,0.68-1.111,1.33-1.029
	S428.307,363.209,428.223,363.859z"/>
<circle fill="#FFFFFF" stroke="#FFFFFF" stroke-width="5" stroke-linecap="round" stroke-linejoin="round" stroke-miterlimit="10" cx="355.116" cy="390.351" r="1.206"/>
<path fill="#FFFFFF" stroke="#FFFFFF" stroke-width="5" stroke-linecap="round" stroke-linejoin="round" stroke-miterlimit="10" d="
	M598.322,380.109c-0.082,0.65-0.682,1.119-1.332,1.033c-0.65-0.082-1.111-0.676-1.029-1.326c0.084-0.656,0.676-1.115,1.326-1.035
	C597.943,378.863,598.404,379.459,598.322,380.109z"/>
<path fill="#FFFFFF" stroke="#FFFFFF" stroke-width="5" stroke-linecap="round" stroke-linejoin="round" stroke-miterlimit="10" d="
	M673.617,353.607c-0.082,0.654-0.68,1.115-1.33,1.033s-1.113-0.676-1.029-1.326c0.084-0.656,0.68-1.115,1.33-1.035
	C673.238,352.363,673.701,352.957,673.617,353.607z"/>
<path fill="#FFFFFF" stroke="#FFFFFF" stroke-width="5" stroke-linecap="round" stroke-linejoin="round" stroke-miterlimit="10" d="
	M690.92,316.209c-0.082,0.65-0.678,1.117-1.33,1.033c-0.65-0.08-1.113-0.68-1.029-1.33c0.08-0.65,0.674-1.111,1.328-1.029
	C690.539,314.963,691,315.559,690.92,316.209z"/>
<path fill="#FFFFFF" stroke="#FFFFFF" stroke-width="5" stroke-linecap="round" stroke-linejoin="round" stroke-miterlimit="10" d="
	M762.316,334.057c-0.082,0.654-0.68,1.117-1.332,1.033c-0.648-0.082-1.111-0.676-1.027-1.326c0.08-0.652,0.674-1.115,1.33-1.035
	C761.938,332.814,762.398,333.406,762.316,334.057z"/>
<path fill="#FFFFFF" stroke="#FFFFFF" stroke-width="5" stroke-linecap="round" stroke-linejoin="round" stroke-miterlimit="10" d="
	M724.156,280.816c-0.082,0.652-0.676,1.113-1.33,1.031c-0.65-0.082-1.113-0.678-1.029-1.328c0.086-0.65,0.68-1.111,1.33-1.031
	C723.777,279.57,724.24,280.166,724.156,280.816z"/>
<g>

		<line fill="none" stroke="#FFFFFF" stroke-width="4" stroke-linecap="round" stroke-linejoin="round" stroke-miterlimit="10" x1="202.029" y1="459.672" x2="199.832" y2="598.723"/>

		<polyline fill="none" stroke="#FFFFFF" stroke-width="4" stroke-linecap="round" stroke-linejoin="round" stroke-miterlimit="10" points="
		187.525,473.004 202.762,463.416 216.559,474.33 	"/>

		<polyline fill="none" stroke="#FFFFFF" stroke-width="4" stroke-linecap="round" stroke-linejoin="round" stroke-miterlimit="10" points="
		183.537,494.389 200.07,479.496 217.303,492.072 	"/>

		<polyline fill="none" stroke="#FFFFFF" stroke-width="4" stroke-linecap="round" stroke-linejoin="round" stroke-miterlimit="10" points="
		184.725,513.404 200.814,497.236 218.643,509.895 	"/>

		<polyline fill="none" stroke="#FFFFFF" stroke-width="4" stroke-linecap="round" stroke-linejoin="round" stroke-miterlimit="10" points="
		176.025,533.576 201.865,512.588 220.562,532.65 	"/>

		<polyline fill="none" stroke="#FFFFFF" stroke-width="4" stroke-linecap="round" stroke-linejoin="round" stroke-miterlimit="10" points="
		180.725,553.654 200.793,534.961 224.121,556.842 	"/>
</g>
<g>

		<line fill="none" stroke="#FFFFFF" stroke-width="4" stroke-linecap="round" stroke-linejoin="round" stroke-miterlimit="10" x1="87.291" y1="594.109" x2="81.791" y2="486.307"/>

		<polyline fill="none" stroke="#FFFFFF" stroke-width="4" stroke-linecap="round" stroke-linejoin="round" stroke-miterlimit="10" points="
		73.678,492.555 81.713,486.906 93.66,493.318 	"/>

		<polyline fill="none" stroke="#FFFFFF" stroke-width="4" stroke-linecap="round" stroke-linejoin="round" stroke-miterlimit="10" points="
		72.238,513.059 83,500.459 96.121,511.895 	"/>

		<polyline fill="none" stroke="#FFFFFF" stroke-width="4" stroke-linecap="round" stroke-linejoin="round" stroke-miterlimit="10" points="
		71.631,531.842 82.312,519.84 95.822,528.281 	"/>

		<polyline fill="none" stroke="#FFFFFF" stroke-width="4" stroke-linecap="round" stroke-linejoin="round" stroke-miterlimit="10" points="
		73.727,548.543 84.484,535.939 101.639,549.113 	"/>
</g>
<g>

		<line fill="none" stroke="#FFFFFF" stroke-width="4" stroke-linecap="round" stroke-linejoin="round" stroke-miterlimit="10" x1="320.811" y1="594.109" x2="315.311" y2="486.307"/>

		<polyline fill="none" stroke="#FFFFFF" stroke-width="4" stroke-linecap="round" stroke-linejoin="round" stroke-miterlimit="10" points="
		307.199,492.555 315.232,486.906 327.18,493.318 	"/>

		<polyline fill="none" stroke="#FFFFFF" stroke-width="4" stroke-linecap="round" stroke-linejoin="round" stroke-miterlimit="10" points="
		305.76,513.059 316.52,500.459 329.643,511.895 	"/>

		<polyline fill="none" stroke="#FFFFFF" stroke-width="4" stroke-linecap="round" stroke-linejoin="round" stroke-miterlimit="10" points="
		305.15,531.842 315.834,519.84 329.342,528.281 	"/>

		<polyline fill="none" stroke="#FFFFFF" stroke-width="4" stroke-linecap="round" stroke-linejoin="round" stroke-miterlimit="10" points="
		307.246,548.543 318.006,535.939 335.16,549.113 	"/>
</g>
<path fill="#FFFFFF" stroke="#FFFFFF" stroke-width="5" stroke-linecap="round" stroke-linejoin="round" stroke-miterlimit="10" d="
	M284.387,261.498c-0.086,0.66-0.691,1.129-1.352,1.045c-0.66-0.088-1.127-0.691-1.041-1.352c0.086-0.662,0.691-1.127,1.35-1.043
	C284.006,260.232,284.473,260.84,284.387,261.498z"/>
<circle fill="#FFFFFF" stroke="#FFFFFF" stroke-width="5" stroke-linecap="round" stroke-linejoin="round" stroke-miterlimit="10" cx="202.972" cy="274.68" r="1.206"/>
<path fill="#FFFFFF" stroke="#FFFFFF" stroke-width="5" stroke-linecap="round" stroke-linejoin="round" stroke-miterlimit="10" d="
	M236.184,295.412c-0.086,0.662-0.691,1.127-1.354,1.039c-0.658-0.082-1.125-0.686-1.039-1.35c0.086-0.66,0.691-1.127,1.352-1.043
	C235.803,294.146,236.27,294.75,236.184,295.412z"/>
<path fill="#FFFFFF" stroke="#FFFFFF" stroke-width="5" stroke-linecap="round" stroke-linejoin="round" stroke-miterlimit="10" d="
	M231.865,356.914c-0.086,0.664-0.691,1.131-1.354,1.043c-0.658-0.086-1.125-0.691-1.041-1.352c0.086-0.662,0.691-1.127,1.352-1.041
	S231.951,356.254,231.865,356.914z"/>
<circle fill="#FFFFFF" stroke="#FFFFFF" stroke-width="5" stroke-linecap="round" stroke-linejoin="round" stroke-miterlimit="10" cx="145.587" cy="275.299" r="1.206"/>
<path fill="#FFFFFF" stroke="#FFFFFF" stroke-width="5" stroke-linecap="round" stroke-linejoin="round" stroke-miterlimit="10" d="
	M277.078,388.328c-0.086,0.664-0.691,1.131-1.354,1.043c-0.658-0.088-1.125-0.691-1.039-1.352c0.086-0.662,0.691-1.127,1.352-1.041
	S277.164,387.668,277.078,388.328z"/>
<path fill="#FFFFFF" stroke="#FFFFFF" stroke-width="5" stroke-linecap="round" stroke-linejoin="round" stroke-miterlimit="10" d="
	M301.545,340.389c-0.086,0.66-0.691,1.129-1.354,1.043c-0.658-0.086-1.127-0.691-1.041-1.354c0.086-0.66,0.691-1.123,1.352-1.039
	S301.631,339.729,301.545,340.389z"/>
<path fill="#FFFFFF" stroke="#FFFFFF" stroke-width="5" stroke-linecap="round" stroke-linejoin="round" stroke-miterlimit="10" d="
	M320.559,306.348c-0.086,0.66-0.691,1.127-1.352,1.039c-0.66-0.082-1.125-0.691-1.041-1.352c0.086-0.658,0.691-1.125,1.35-1.041
	C320.178,305.08,320.645,305.684,320.559,306.348z"/>
<path fill="#FFFFFF" stroke="#FFFFFF" stroke-width="5" stroke-linecap="round" stroke-linejoin="round" stroke-miterlimit="10" d="
	M358.574,271.953c-0.086,0.66-0.691,1.127-1.354,1.039c-0.658-0.082-1.125-0.689-1.039-1.352c0.086-0.658,0.689-1.125,1.35-1.041
	C358.193,270.686,358.66,271.289,358.574,271.953z"/>
<path fill="#FFFFFF" stroke="#FFFFFF" stroke-width="5" stroke-linecap="round" stroke-linejoin="round" stroke-miterlimit="10" d="
	M173.852,325.668c-0.086,0.66-0.691,1.127-1.354,1.039c-0.658-0.082-1.125-0.691-1.041-1.352c0.086-0.658,0.693-1.127,1.354-1.039
	C173.469,324.402,173.938,325.008,173.852,325.668z"/>
<path fill="#FFFFFF" stroke="#FFFFFF" stroke-width="5" stroke-linecap="round" stroke-linejoin="round" stroke-miterlimit="10" d="
	M79.719,323.857c-0.084,0.66-0.691,1.129-1.352,1.041c-0.66-0.086-1.127-0.691-1.043-1.352c0.086-0.66,0.693-1.127,1.354-1.039
	C79.336,322.592,79.805,323.195,79.719,323.857z"/>
<circle fill="#FFFFFF" stroke="#FFFFFF" stroke-width="5" stroke-linecap="round" stroke-linejoin="round" stroke-miterlimit="10" cx="174.753" cy="407.926" r="1.206"/>
<circle fill="#FFFFFF" stroke="#FFFFFF" stroke-width="5" stroke-linecap="round" stroke-linejoin="round" stroke-miterlimit="10" cx="129.705" cy="389.311" r="1.205"/>
<path fill="#FFFFFF" stroke="#FFFFFF" stroke-width="5" stroke-linecap="round" stroke-linejoin="round" stroke-miterlimit="10" d="
	M131.93,311.107c-0.086,0.662-0.691,1.127-1.354,1.043c-0.658-0.088-1.127-0.691-1.041-1.352c0.086-0.662,0.691-1.127,1.352-1.041
	C131.547,309.84,132.016,310.445,131.93,311.107z"/>
<g>
	<g>

			<line fill="#FFFFFF" stroke="#FFFFFF" stroke-width="0.5" stroke-linejoin="round" stroke-miterlimit="10" x1="319.334" y1="600.233" x2="546.08" y2="600.823"/>
		<polygon fill="#FFFFFF" stroke="#FFFFFF" stroke-miterlimit="10" points="319.685,600.5 328.819,589.598 337.954,600.5 		"/>
		<polygon fill="#FFFFFF" stroke="#FFFFFF" stroke-miterlimit="10" points="335.7,600.5 344.833,589.598 353.967,600.5 		"/>
		<polygon fill="#FFFFFF" stroke="#FFFFFF" stroke-miterlimit="10" points="351.713,600.5 360.847,589.598 369.98,600.5 		"/>
		<polygon fill="#FFFFFF" stroke="#FFFFFF" stroke-miterlimit="10" points="367.726,600.5 376.859,589.598 385.995,600.5 		"/>
		<polygon fill="#FFFFFF" stroke="#FFFFFF" stroke-miterlimit="10" points="383.739,600.5 392.873,589.598 402.008,600.5 		"/>
		<polygon fill="#FFFFFF" stroke="#FFFFFF" stroke-miterlimit="10" points="399.752,600.5 408.886,589.598 418.021,600.5 		"/>
		<polygon fill="#FFFFFF" stroke="#FFFFFF" stroke-miterlimit="10" points="415.765,600.5 424.9,589.598 434.036,600.5 		"/>
		<polygon fill="#FFFFFF" stroke="#FFFFFF" stroke-miterlimit="10" points="431.778,600.5 440.914,589.598 450.048,600.5 		"/>
		<polygon fill="#FFFFFF" stroke="#FFFFFF" stroke-miterlimit="10" points="447.793,600.5 456.929,589.598 466.062,600.5 		"/>
		<polygon fill="#FFFFFF" stroke="#FFFFFF" stroke-miterlimit="10" points="463.807,600.5 472.941,589.598 482.074,600.5 		"/>
		<polygon fill="#FFFFFF" stroke="#FFFFFF" stroke-miterlimit="10" points="479.821,600.5 488.955,589.598 498.089,600.5 		"/>
		<polygon fill="#FFFFFF" stroke="#FFFFFF" stroke-miterlimit="10" points="495.835,600.5 504.967,589.598 514.101,600.5 		"/>
		<polygon fill="#FFFFFF" stroke="#FFFFFF" stroke-miterlimit="10" points="511.848,600.5 520.981,589.598 530.116,600.5 		"/>
		<polygon fill="#FFFFFF" stroke="#FFFFFF" stroke-miterlimit="10" points="527.861,600.5 536.993,589.598 546.129,600.5 		"/>
		<polygon fill="#FFFFFF" stroke="#FFFFFF" stroke-miterlimit="10" points="545.561,600.5 554.694,589.598 563.829,600.5 		"/>
		<polygon fill="#FFFFFF" stroke="#FFFFFF" stroke-miterlimit="10" points="563.26,600.5 572.395,589.598 581.53,600.5 		"/>
		<polygon fill="#FFFFFF" stroke="#FFFFFF" stroke-miterlimit="10" points="580.961,600.5 590.095,589.598 599.23,600.5 		"/>
		<polygon fill="#FFFFFF" stroke="#FFFFFF" stroke-miterlimit="10" points="598.661,600.5 607.794,589.598 616.93,600.5 		"/>
		<polygon fill="#FFFFFF" stroke="#FFFFFF" stroke-miterlimit="10" points="616.361,600.5 625.495,589.598 634.629,600.5 		"/>
		<polygon fill="#FFFFFF" stroke="#FFFFFF" stroke-miterlimit="10" points="634.062,600.5 643.194,589.598 652.33,600.5 		"/>
		<polygon fill="#FFFFFF" stroke="#FFFFFF" stroke-miterlimit="10" points="651.761,600.5 660.895,589.598 670.03,600.5 		"/>
		<polygon fill="#FFFFFF" stroke="#FFFFFF" stroke-miterlimit="10" points="669.461,600.5 678.595,589.598 687.73,600.5 		"/>
		<polygon fill="#FFFFFF" stroke="#FFFFFF" stroke-miterlimit="10" points="687.162,600.5 696.296,589.598 705.431,600.5 		"/>
		<polygon fill="#FFFFFF" stroke="#FFFFFF" stroke-miterlimit="10" points="704.861,600.5 713.995,589.598 723.131,600.5 		"/>
		<polygon fill="#FFFFFF" stroke="#FFFFFF" stroke-miterlimit="10" points="722.562,600.5 731.695,589.598 740.831,600.5 		"/>
		<polygon fill="#FFFFFF" stroke="#FFFFFF" stroke-miterlimit="10" points="740.262,600.5 749.395,589.598 758.531,600.5 		"/>
		<polygon fill="#FFFFFF" stroke="#FFFFFF" stroke-miterlimit="10" points="757.963,600.5 767.097,589.598 776.23,600.5 		"/>
		<polygon fill="#FFFFFF" stroke="#FFFFFF" stroke-miterlimit="10" points="775.663,600.5 784.796,589.598 793.932,600.5 		"/>
		<polygon fill="#FFFFFF" stroke="#FFFFFF" stroke-miterlimit="10" points="793.362,600.5 802.496,589.598 811.631,600.5 		"/>
		<path fill="#FFFFFF" stroke="#FFFFFF" stroke-miterlimit="10" d="M811.062,600.5"/>
	</g>
	<g>
		<path fill="#FFFFFF" stroke="#FFFFFF" stroke-miterlimit="10" d="M-0.805,600.5"/>
		<path fill="#FFFFFF" stroke="#FFFFFF" stroke-miterlimit="10" d="M7.76,589.598l-7.905,9.437c0.099,0.488,0.185,0.978,0.278,1.466
			h16.763L7.76,589.598z"/>
		<path fill="#FFFFFF" stroke="#FFFFFF" stroke-miterlimit="10" d="M-1.373,600.5h1.506c-0.093-0.488-0.179-0.978-0.278-1.466
			L-1.373,600.5"/>
		<polygon fill="#FFFFFF" stroke="#FFFFFF" stroke-miterlimit="10" points="16.327,600.5 25.46,589.598 34.595,600.5 		"/>
		<polygon fill="#FFFFFF" stroke="#FFFFFF" stroke-miterlimit="10" points="34.027,600.5 43.16,589.598 52.296,600.5 		"/>
		<polygon fill="#FFFFFF" stroke="#FFFFFF" stroke-miterlimit="10" points="51.727,600.5 60.861,589.598 69.996,600.5 		"/>
		<polygon fill="#FFFFFF" stroke="#FFFFFF" stroke-miterlimit="10" points="69.427,600.5 78.561,589.598 87.696,600.5 		"/>
		<polygon fill="#FFFFFF" stroke="#FFFFFF" stroke-miterlimit="10" points="87.127,600.5 96.261,589.598 105.396,600.5 		"/>
		<polygon fill="#FFFFFF" stroke="#FFFFFF" stroke-miterlimit="10" points="104.828,600.5 113.961,589.598 123.096,600.5 		"/>
		<polygon fill="#FFFFFF" stroke="#FFFFFF" stroke-miterlimit="10" points="122.527,600.5 131.661,589.598 140.796,600.5 		"/>
		<polygon fill="#FFFFFF" stroke="#FFFFFF" stroke-miterlimit="10" points="140.228,600.5 149.361,589.598 158.497,600.5 		"/>
		<polygon fill="#FFFFFF" stroke="#FFFFFF" stroke-miterlimit="10" points="157.928,600.5 167.062,589.598 176.196,600.5 		"/>
		<polygon fill="#FFFFFF" stroke="#FFFFFF" stroke-miterlimit="10" points="175.627,600.5 184.762,589.598 193.897,600.5 		"/>
		<polygon fill="#FFFFFF" stroke="#FFFFFF" stroke-miterlimit="10" points="193.328,600.5 202.462,589.598 211.597,600.5 		"/>
		<polygon fill="#FFFFFF" stroke="#FFFFFF" stroke-miterlimit="10" points="211.028,600.5 220.162,589.598 229.297,600.5 		"/>
		<polygon fill="#FFFFFF" stroke="#FFFFFF" stroke-miterlimit="10" points="228.728,600.5 237.862,589.598 246.997,600.5 		"/>
		<polygon fill="#FFFFFF" stroke="#FFFFFF" stroke-miterlimit="10" points="246.428,600.5 255.562,589.598 264.697,600.5 		"/>
		<polygon fill="#FFFFFF" stroke="#FFFFFF" stroke-miterlimit="10" points="264.128,600.5 273.262,589.598 282.397,600.5 		"/>
		<polygon fill="#FFFFFF" stroke="#FFFFFF" stroke-miterlimit="10" points="281.829,600.5 290.962,589.598 300.098,600.5 		"/>
		<polygon fill="#FFFFFF" stroke="#FFFFFF" stroke-miterlimit="10" points="299.529,600.5 308.663,589.598 317.797,600.5 		"/>
	</g>
</g>
</svg>
