<svg version="1.1" xmlns="http://www.w3.org/2000/svg" xmlns:xlink="http://www.w3.org/1999/xlink" x="0px" y="0px"
	 width="268.486px" height="214.403px" viewBox="0 0 268.486 214.403" enable-background="new 0 0 268.486 214.403"
	 xml:space="preserve">
<g id="Layer_2" display="none" opacity="0.5">
	
		<rect x="10.407" y="18.903" display="inline" fill="none" stroke="#000000" stroke-width="7" stroke-linejoin="round" stroke-miterlimit="10" width="250" height="167"/>
	
		<polyline display="inline" fill="none" stroke="#000000" stroke-width="7" stroke-linejoin="round" stroke-miterlimit="10" points="
		260.186,54.804 135.621,116.856 135.62,116.856 10.642,55.643 	"/>
</g>
<g id="Layer_4">
	<g>
		<path fill-opacity="0.5" stroke="#FFFFFF" stroke-width="7" stroke-linejoin="round" stroke-miterlimit="10" d="M259.407,166.715
			c0,18.605-12.983,33.688-29,33.688h-192c-16.016,0-29-15.083-29-33.688V40.092c0-18.605,12.984-33.688,29-33.688h192
			c16.017,0,29,15.083,29,33.688V166.715z"/>
		<path fill="none" stroke="#FFFFFF" stroke-width="7" stroke-linejoin="round" stroke-miterlimit="10" d="M9.907,49.966
			l94.667,54.211c25.333,17.037,34.666,13.94,49.333,5.421s105.334-61.182,105.334-61.182"/>
	</g>
</g>
<g id="Layer_3" display="none" opacity="0.5">
	<path display="inline" fill="none" stroke="#000000" stroke-width="7" stroke-miterlimit="10" d="M233.407,29.903
		c0-14.912-12.088-27-27-27h-138c-14.912,0-27,12.088-27,27v138c0,14.912,12.088,27,27,27h138c14.912,0,27-12.088,27-27V29.903z"/>
	<g display="inline">
		<path d="M138.906,58.069c23.013,0,41.668,18.655,41.668,41.668s-18.655,41.668-41.668,41.668S97.238,122.75,97.238,99.737
			S115.894,58.069,138.906,58.069 M138.906,51.069c-26.836,0-48.668,21.833-48.668,48.668c0,26.836,21.832,48.668,48.668,48.668
			s48.668-21.832,48.668-48.668C187.574,72.902,165.742,51.069,138.906,51.069L138.906,51.069z"/>
	</g>
	<path display="inline" fill="none" stroke="#000000" stroke-width="5" stroke-miterlimit="10" d="M219.407,31.903
		c0-8.284-6.716-15-15-15h-12c-8.284,0-15,6.716-15,15v12c0,8.284,6.716,15,15,15h12c8.284,0,15-6.716,15-15V31.903z"/>
	
		<line display="inline" fill="none" stroke="#000000" stroke-width="7" stroke-miterlimit="10" x1="41.907" y1="82.903" x2="98.907" y2="82.903"/>
	
		<line display="inline" fill="none" stroke="#000000" stroke-width="7" stroke-miterlimit="10" x1="180.907" y1="82.903" x2="234.907" y2="82.903"/>
</g>
</svg>
