<svg version="1.1" id="Layer_2" xmlns="http://www.w3.org/2000/svg" xmlns:xlink="http://www.w3.org/1999/xlink" x="0px" y="0px"
	 width="214px" height="216px" viewBox="0 0 214 216" enable-background="new 0 0 214 216" xml:space="preserve">
<path fill="none" stroke="#FFFFFF" stroke-width="7" stroke-miterlimit="10" d="M118,205.5"/>
<path fill="none" stroke="#FFFFFF" stroke-width="7" stroke-miterlimit="10" d="M145.5,209.5h34.709
	c16.177,0,25.291-17.07,25.291-33.194V34.361c0-16.124-9.114-24.861-25.291-24.861H37.791C21.614,9.5,4.5,18.237,4.5,34.361v141.945
	c0,16.124,17.114,33.194,33.291,33.194H119l-0.59-81H89.994l0.5-30.334l28.006-0.749c0,0-1.58-12.544,0.25-31.958
	c2.16-22.919,20.75-31.479,34.75-31.729s27,1.135,27,1.135L180,61.557c0,0-13.833,0.222-20.583,0.389s-9.166,2.564-10.25,8.814
	s0.166,25.829,0.166,25.829l31.167,1.622l-1.25,30.289H145.5V209.5z"/>
</svg>
