<svg version="1.1" id="Layer_2" xmlns="http://www.w3.org/2000/svg" xmlns:xlink="http://www.w3.org/1999/xlink" x="0px" y="0px"
	 width="214px" height="216px" viewBox="0 0 214 216" enable-background="new 0 0 214 216" xml:space="preserve">
<path fill="none" stroke="#FFFFFF" stroke-width="7" stroke-miterlimit="10" d="M202.5,36.5c0-14.912-12.088-27-27-27h-138
	c-14.912,0-27,12.088-27,27v138c0,14.912,12.088,27,27,27h138c14.912,0,27-12.088,27-27V36.5z"/>
<g>
	<path fill="#FFFFFF" d="M107.999,64.666c23.013,0,41.668,18.655,41.668,41.668s-18.655,41.668-41.668,41.668
		s-41.668-18.655-41.668-41.668S84.986,64.666,107.999,64.666 M107.999,57.666c-26.836,0-48.668,21.833-48.668,48.668
		c0,26.836,21.832,48.668,48.668,48.668s48.668-21.832,48.668-48.668C156.667,79.499,134.835,57.666,107.999,57.666L107.999,57.666z
		"/>
</g>
<path fill="none" stroke="#FFFFFF" stroke-width="5" stroke-miterlimit="10" d="M188.5,38.5c0-8.284-6.716-15-15-15h-12
	c-8.284,0-15,6.716-15,15v12c0,8.284,6.716,15,15,15h12c8.284,0,15-6.716,15-15V38.5z"/>
<line fill="none" stroke="#FFFFFF" stroke-width="7" stroke-miterlimit="10" x1="11" y1="89.5" x2="68" y2="89.5"/>
<line fill="none" stroke="#FFFFFF" stroke-width="7" stroke-miterlimit="10" x1="150" y1="89.5" x2="204" y2="89.5"/>
</svg>
